<svg width="148" height="16" fill="none" xmlns="http://www.w3.org/2000/svg"><path d="M8.411 8.71h2.848c-.047.88-.287 1.656-.72 2.33-.429.668-1.023 1.192-1.785 1.573-.762.375-1.667.563-2.716.563-.838 0-1.588-.144-2.25-.43a4.656 4.656 0 01-1.687-1.231c-.457-.54-.809-1.187-1.055-1.943-.24-.761-.36-1.62-.36-2.575v-.782c0-.955.126-1.814.377-2.575.252-.762.613-1.412 1.082-1.952A4.711 4.711 0 013.832.45C4.488.162 5.221.02 6.029.02c1.09 0 2.01.196 2.76.588.75.393 1.33.932 1.74 1.618.416.685.665 1.467.747 2.346H8.42c-.024-.498-.117-.917-.281-1.257a1.659 1.659 0 00-.756-.782c-.34-.176-.791-.263-1.354-.263-.41 0-.77.076-1.08.228-.305.152-.56.39-.765.712-.2.322-.349.732-.449 1.23-.1.493-.15 1.079-.15 1.758v.8c0 .674.045 1.257.133 1.75.088.491.228.899.422 1.22.199.323.454.563.764.721.31.159.689.238 1.134.238.51 0 .935-.08 1.274-.238.34-.164.601-.41.783-.738.181-.328.287-.741.316-1.24zm13.025-3.356v2.214H14.81V5.354h6.626zM15.715.204V13H12.85V.203h2.865zm7.7 0V13h-2.857V.203h2.856zm5.176 0V13h-2.857V.203h2.857zm2.311 0h4.913c.979 0 1.826.146 2.54.439.721.293 1.275.726 1.662 1.3.386.575.58 1.284.58 2.127 0 .703-.115 1.301-.343 1.793-.229.492-.55.9-.967 1.222-.41.322-.89.583-1.441.782l-.932.51H32.73l-.017-2.224h3.111c.428 0 .782-.076 1.064-.228.28-.153.492-.366.633-.642.146-.281.22-.61.22-.984 0-.387-.074-.72-.22-1.002a1.466 1.466 0 00-.65-.642c-.282-.152-.634-.228-1.056-.228h-2.047V13h-2.866V.203zM37.986 13l-2.874-5.687 3.024-.008 2.918 5.563V13h-3.068zm11.91-4.29h2.847c-.047.88-.287 1.656-.72 2.33-.428.668-1.023 1.192-1.785 1.573-.761.375-1.667.563-2.715.563-.838 0-1.588-.144-2.25-.43a4.656 4.656 0 01-1.688-1.231c-.457-.54-.809-1.187-1.055-1.943-.24-.761-.36-1.62-.36-2.575v-.782c0-.955.126-1.814.378-2.575.252-.762.612-1.412 1.08-1.952A4.712 4.712 0 0145.317.45c.657-.287 1.39-.43 2.198-.43 1.09 0 2.01.196 2.76.588.75.393 1.33.932 1.74 1.618.416.685.665 1.467.747 2.346h-2.857c-.023-.498-.117-.917-.281-1.257a1.659 1.659 0 00-.756-.782c-.34-.176-.79-.263-1.353-.263-.41 0-.77.076-1.081.228-.305.152-.56.39-.765.712-.2.322-.349.732-.448 1.23-.1.493-.15 1.079-.15 1.758v.8c0 .674.044 1.257.132 1.75.088.491.229.899.422 1.22.2.323.454.563.765.721.31.159.688.238 1.133.238.51 0 .935-.08 1.275-.238.34-.164.6-.41.782-.738.182-.328.287-.741.316-1.24zM62.92 5.355v2.214h-6.627V5.354h6.627zM57.199.204V13h-2.865V.203h2.865zm7.7 0V13h-2.857V.203h2.856zm5.176 0V13H67.22V.203h2.856zm9.36 10.792l3.516 2.786-1.793 1.53-3.454-2.787 1.732-1.529zm3.64-4.676v.572c0 .972-.136 1.845-.405 2.619-.27.773-.65 1.432-1.143 1.977a5.036 5.036 0 01-1.749 1.257c-.668.287-1.409.43-2.223.43-.815 0-1.559-.143-2.233-.43a5.124 5.124 0 01-1.758-1.257c-.492-.545-.873-1.204-1.142-1.977-.27-.774-.404-1.647-.404-2.62v-.57c0-.973.134-1.846.404-2.62.27-.78.647-1.441 1.134-1.986A4.94 4.94 0 0175.305.467c.673-.293 1.418-.44 2.232-.44.815 0 1.559.147 2.232.44a4.939 4.939 0 011.75 1.248c.492.545.873 1.207 1.142 1.986.275.774.413 1.647.413 2.62zm-2.91.572v-.59c0-.65-.059-1.224-.176-1.722-.111-.504-.281-.926-.51-1.266a2.188 2.188 0 00-.826-.764 2.326 2.326 0 00-1.116-.264c-.428 0-.806.088-1.134.264-.322.17-.594.425-.817.764-.217.34-.384.762-.501 1.266a7.945 7.945 0 00-.167 1.723v.589c0 .644.056 1.218.167 1.722.117.498.287.92.51 1.266.222.346.498.606.826.782.328.176.706.264 1.134.264a2.27 2.27 0 001.107-.264c.328-.176.604-.436.826-.782.223-.346.39-.768.501-1.266a7.645 7.645 0 00.176-1.722z" fill="#0047FF"/><path d="M95.933 9.625c0-.217-.033-.41-.097-.58a1.178 1.178 0 00-.352-.483 3.222 3.222 0 00-.72-.44 8.903 8.903 0 00-1.222-.466 16.506 16.506 0 01-1.644-.633 7.08 7.08 0 01-1.38-.835 3.655 3.655 0 01-.957-1.107c-.229-.422-.343-.914-.343-1.477 0-.544.12-1.037.36-1.476.24-.44.577-.815 1.01-1.125a4.732 4.732 0 011.53-.72 6.924 6.924 0 011.934-.256c.937 0 1.76.167 2.47.501.714.328 1.271.791 1.67 1.389.398.592.597 1.28.597 2.065h-2.848c0-.345-.073-.65-.22-.914-.14-.27-.357-.48-.65-.632-.287-.153-.647-.229-1.08-.229-.423 0-.777.064-1.064.193a1.45 1.45 0 00-.642.51c-.14.217-.21.454-.21.712 0 .205.052.393.157.563.112.164.27.319.475.465.211.141.469.276.774.405.304.129.653.252 1.045.369a12.52 12.52 0 011.82.72 5.72 5.72 0 011.344.897c.364.334.636.712.818 1.134.187.422.281.9.281 1.432 0 .569-.111 1.073-.334 1.512-.217.44-.533.815-.95 1.125-.41.305-.901.536-1.476.694a7.244 7.244 0 01-1.924.238c-.645 0-1.28-.082-1.908-.246a5.64 5.64 0 01-1.705-.774 3.962 3.962 0 01-1.213-1.318c-.298-.54-.448-1.178-.448-1.916h2.865c0 .387.056.715.167.984.112.264.27.478.475.642.21.164.466.281.765.351.298.07.632.106 1.002.106.427 0 .773-.059 1.037-.176.27-.123.468-.29.597-.5.13-.212.194-.446.194-.704zM106.436.203V13h-2.857V.203h2.857zm3.893 0v2.224H99.765V.203h10.564zm10.116 10.582V13h-6.811v-2.215h6.811zM114.609.203V13h-2.865V.203h2.865zm4.957 5.15v2.145h-5.932V5.354h5.932zm.888-5.15v2.224h-6.82V.203h6.82zm2.769 0h2.373l3.076 9.15 3.067-9.15h2.373L129.63 13h-1.925L123.223.203zm-1.371 0h2.417l.448 9.484V13h-2.865V.203zm11.214 0h2.426V13h-2.874V9.687l.448-9.484zm9.598 8.35h-3.217V6.329h3.217c.475 0 .856-.079 1.143-.237.293-.158.506-.375.641-.65.141-.282.211-.598.211-.95 0-.363-.07-.7-.211-1.01a1.696 1.696 0 00-.641-.765c-.287-.194-.668-.29-1.143-.29h-2.18V13h-2.865V.203h5.045c1.02 0 1.893.185 2.619.554.733.369 1.292.876 1.679 1.52.392.639.589 1.371.589 2.198 0 .826-.197 1.544-.589 2.153-.387.61-.946 1.084-1.679 1.424-.726.334-1.599.5-2.619.5z" fill="#DC0000"/></svg>