<svg width="94" height="113" fill="none" xmlns="http://www.w3.org/2000/svg"><g filter="url(#filter0_d_94_355)"><path d="M47 15c-9.39 0-17 7.388-17 16.54C30 47.364 47 68 47 68s17-20.64 17-36.46C64 22.392 56.39 15 47 15zm0 25.691a9.3 9.3 0 01-6.491-2.621 8.837 8.837 0 01-2.689-6.328c0-2.374.967-4.65 2.689-6.328A9.3 9.3 0 0147 22.793a9.3 9.3 0 016.491 2.62 8.837 8.837 0 012.689 6.329c0 2.373-.967 4.65-2.689 6.328A9.3 9.3 0 0147 40.691z" fill="#0047FF"/></g><defs><filter id="filter0_d_94_355" x="0" y="0" width="94" height="113" filterUnits="userSpaceOnUse" color-interpolation-filters="sRGB"><feFlood flood-opacity="0" result="BackgroundImageFix"/><feColorMatrix in="SourceAlpha" values="0 0 0 0 0 0 0 0 0 0 0 0 0 0 0 0 0 0 127 0" result="hardAlpha"/><feOffset dy="15"/><feGaussianBlur stdDeviation="15"/><feColorMatrix values="0 0 0 0 0.14902 0 0 0 0 0.231373 0 0 0 0 0.831373 0 0 0 0.34 0"/><feBlend in2="BackgroundImageFix" result="effect1_dropShadow_94_355"/><feBlend in="SourceGraphic" in2="effect1_dropShadow_94_355" result="shape"/></filter></defs></svg>