<svg width="148" height="16" viewBox="0 0 148 16" fill="none" xmlns="http://www.w3.org/2000/svg">
<path d="M8.41113 8.71094H11.2588C11.2119 9.58984 10.9717 10.3662 10.5381 11.04C10.1104 11.708 9.51562 12.2324 8.75391 12.6133C7.99219 12.9883 7.08691 13.1758 6.03809 13.1758C5.2002 13.1758 4.4502 13.0322 3.78809 12.7451C3.12598 12.458 2.56348 12.0479 2.10059 11.5146C1.64355 10.9756 1.29199 10.3281 1.0459 9.57227C0.805664 8.81055 0.685547 7.95215 0.685547 6.99707V6.21484C0.685547 5.25977 0.811523 4.40137 1.06348 3.63965C1.31543 2.87793 1.67578 2.22754 2.14453 1.68848C2.61328 1.14941 3.17578 0.736328 3.83203 0.449219C4.48828 0.162109 5.2207 0.0185547 6.0293 0.0185547C7.11914 0.0185547 8.03906 0.214844 8.78906 0.607422C9.53906 1 10.1191 1.53906 10.5293 2.22461C10.9453 2.91016 11.1943 3.69238 11.2764 4.57129H8.41992C8.39648 4.07324 8.30273 3.6543 8.13867 3.31445C7.97461 2.96875 7.72266 2.70801 7.38281 2.53223C7.04297 2.35645 6.5918 2.26855 6.0293 2.26855C5.61914 2.26855 5.25879 2.34473 4.94824 2.49707C4.64355 2.64941 4.38867 2.88672 4.18359 3.20898C3.98438 3.53125 3.83496 3.94141 3.73535 4.43945C3.63574 4.93164 3.58594 5.51758 3.58594 6.19727V6.99707C3.58594 7.6709 3.62988 8.25391 3.71777 8.74609C3.80566 9.23828 3.94629 9.64551 4.13965 9.96777C4.33887 10.29 4.59375 10.5303 4.9043 10.6885C5.21484 10.8467 5.59277 10.9258 6.03809 10.9258C6.54785 10.9258 6.97266 10.8467 7.3125 10.6885C7.65234 10.5244 7.91309 10.2783 8.09473 9.9502C8.27637 9.62207 8.38184 9.20898 8.41113 8.71094ZM21.4365 5.35352V7.56836H14.8096V5.35352H21.4365ZM15.7148 0.203125V13H12.8496V0.203125H15.7148ZM23.4141 0.203125V13H20.5576V0.203125H23.4141ZM28.5908 0.203125V13H25.7344V0.203125H28.5908ZM30.9023 0.203125H35.8154C36.7939 0.203125 37.6406 0.349609 38.3555 0.642578C39.0762 0.935547 39.6299 1.36914 40.0166 1.94336C40.4033 2.51758 40.5967 3.22656 40.5967 4.07031C40.5967 4.77344 40.4824 5.37109 40.2539 5.86328C40.0254 6.35547 39.7031 6.7627 39.2871 7.08496C38.877 7.40723 38.3965 7.66797 37.8457 7.86719L36.9141 8.37695H32.7305L32.7129 6.15332H35.8242C36.252 6.15332 36.6064 6.07715 36.8877 5.9248C37.1689 5.77246 37.3799 5.55859 37.5205 5.2832C37.667 5.00195 37.7402 4.67383 37.7402 4.29883C37.7402 3.91211 37.667 3.57812 37.5205 3.29688C37.374 3.01562 37.1572 2.80176 36.8701 2.65527C36.5889 2.50293 36.2373 2.42676 35.8154 2.42676H33.7676V13H30.9023V0.203125ZM37.9863 13L35.1123 7.31348L38.1357 7.30469L41.0537 12.8682V13H37.9863ZM49.8955 8.71094H52.7432C52.6963 9.58984 52.4561 10.3662 52.0225 11.04C51.5947 11.708 51 12.2324 50.2383 12.6133C49.4766 12.9883 48.5713 13.1758 47.5225 13.1758C46.6846 13.1758 45.9346 13.0322 45.2725 12.7451C44.6104 12.458 44.0479 12.0479 43.585 11.5146C43.1279 10.9756 42.7764 10.3281 42.5303 9.57227C42.29 8.81055 42.1699 7.95215 42.1699 6.99707V6.21484C42.1699 5.25977 42.2959 4.40137 42.5479 3.63965C42.7998 2.87793 43.1602 2.22754 43.6289 1.68848C44.0977 1.14941 44.6602 0.736328 45.3164 0.449219C45.9727 0.162109 46.7051 0.0185547 47.5137 0.0185547C48.6035 0.0185547 49.5234 0.214844 50.2734 0.607422C51.0234 1 51.6035 1.53906 52.0137 2.22461C52.4297 2.91016 52.6787 3.69238 52.7607 4.57129H49.9043C49.8809 4.07324 49.7871 3.6543 49.623 3.31445C49.459 2.96875 49.207 2.70801 48.8672 2.53223C48.5273 2.35645 48.0762 2.26855 47.5137 2.26855C47.1035 2.26855 46.7432 2.34473 46.4326 2.49707C46.1279 2.64941 45.873 2.88672 45.668 3.20898C45.4688 3.53125 45.3193 3.94141 45.2197 4.43945C45.1201 4.93164 45.0703 5.51758 45.0703 6.19727V6.99707C45.0703 7.6709 45.1143 8.25391 45.2021 8.74609C45.29 9.23828 45.4307 9.64551 45.624 9.96777C45.8232 10.29 46.0781 10.5303 46.3887 10.6885C46.6992 10.8467 47.0771 10.9258 47.5225 10.9258C48.0322 10.9258 48.457 10.8467 48.7969 10.6885C49.1367 10.5244 49.3975 10.2783 49.5791 9.9502C49.7607 9.62207 49.8662 9.20898 49.8955 8.71094ZM62.9209 5.35352V7.56836H56.2939V5.35352H62.9209ZM57.1992 0.203125V13H54.334V0.203125H57.1992ZM64.8984 0.203125V13H62.042V0.203125H64.8984ZM70.0752 0.203125V13H67.2188V0.203125H70.0752ZM79.4355 10.9961L82.9512 13.7822L81.1582 15.3115L77.7041 12.5254L79.4355 10.9961ZM83.0742 6.32031V6.8916C83.0742 7.86426 82.9395 8.7373 82.6699 9.51074C82.4004 10.2842 82.0195 10.9434 81.5273 11.4883C81.0352 12.0332 80.4521 12.4521 79.7783 12.7451C79.1104 13.0322 78.3691 13.1758 77.5547 13.1758C76.7402 13.1758 75.9961 13.0322 75.3223 12.7451C74.6484 12.4521 74.0625 12.0332 73.5645 11.4883C73.0723 10.9434 72.6914 10.2842 72.4219 9.51074C72.1523 8.7373 72.0176 7.86426 72.0176 6.8916V6.32031C72.0176 5.34766 72.1523 4.47461 72.4219 3.70117C72.6914 2.92187 73.0693 2.25977 73.5557 1.71484C74.0479 1.16992 74.6309 0.753906 75.3047 0.466797C75.9785 0.173828 76.7227 0.0273438 77.5371 0.0273438C78.3516 0.0273438 79.0957 0.173828 79.7695 0.466797C80.4434 0.753906 81.0264 1.16992 81.5186 1.71484C82.0107 2.25977 82.3916 2.92187 82.6611 3.70117C82.9365 4.47461 83.0742 5.34766 83.0742 6.32031ZM80.165 6.8916V6.30273C80.165 5.65234 80.1064 5.07812 79.9893 4.58008C79.8779 4.07617 79.708 3.6543 79.4795 3.31445C79.2568 2.97461 78.9814 2.71973 78.6533 2.5498C78.3252 2.37402 77.9531 2.28613 77.5371 2.28613C77.1094 2.28613 76.7314 2.37402 76.4033 2.5498C76.0811 2.71973 75.8086 2.97461 75.5859 3.31445C75.3691 3.6543 75.2021 4.07617 75.085 4.58008C74.9736 5.07812 74.918 5.65234 74.918 6.30273V6.8916C74.918 7.53613 74.9736 8.11035 75.085 8.61426C75.2021 9.1123 75.3721 9.53418 75.5947 9.87988C75.8174 10.2256 76.0928 10.4863 76.4209 10.6621C76.749 10.8379 77.127 10.9258 77.5547 10.9258C77.9707 10.9258 78.3398 10.8379 78.6621 10.6621C78.9902 10.4863 79.2656 10.2256 79.4883 9.87988C79.7109 9.53418 79.8779 9.1123 79.9893 8.61426C80.1064 8.11035 80.165 7.53613 80.165 6.8916Z" fill="#0047FF"/>
<path d="M95.9326 9.625C95.9326 9.4082 95.9004 9.21484 95.8359 9.04492C95.7715 8.86914 95.6543 8.70801 95.4844 8.56152C95.3145 8.41504 95.0742 8.26855 94.7637 8.12207C94.4531 7.96973 94.0459 7.81445 93.542 7.65625C92.9678 7.46875 92.4199 7.25781 91.8984 7.02344C91.3828 6.7832 90.9229 6.50488 90.5186 6.18848C90.1143 5.87207 89.7949 5.50293 89.5605 5.08105C89.332 4.65918 89.2178 4.16699 89.2178 3.60449C89.2178 3.05957 89.3379 2.56738 89.5781 2.12793C89.8184 1.68848 90.1553 1.31348 90.5889 1.00293C91.0225 0.686523 91.5322 0.446289 92.1182 0.282227C92.7041 0.112305 93.3486 0.0273438 94.0518 0.0273438C94.9893 0.0273438 95.8125 0.194336 96.5215 0.52832C97.2363 0.856445 97.793 1.31934 98.1914 1.91699C98.5898 2.50879 98.7891 3.19727 98.7891 3.98242H95.9414C95.9414 3.63672 95.8682 3.33203 95.7217 3.06836C95.5811 2.79883 95.3643 2.58789 95.0713 2.43555C94.7842 2.2832 94.4238 2.20703 93.9902 2.20703C93.5684 2.20703 93.2139 2.27148 92.9268 2.40039C92.6455 2.52344 92.4316 2.69336 92.2852 2.91016C92.1445 3.12695 92.0742 3.36426 92.0742 3.62207C92.0742 3.82715 92.127 4.01465 92.2324 4.18457C92.3438 4.34863 92.502 4.50391 92.707 4.65039C92.918 4.79102 93.1758 4.92578 93.4805 5.05469C93.7852 5.18359 94.1338 5.30664 94.5264 5.42383C95.2119 5.64062 95.8184 5.88086 96.3457 6.14453C96.8789 6.4082 97.3271 6.70703 97.6904 7.04102C98.0537 7.375 98.3262 7.75293 98.5078 8.1748C98.6953 8.59668 98.7891 9.07422 98.7891 9.60742C98.7891 10.1758 98.6777 10.6797 98.4551 11.1191C98.2383 11.5586 97.9219 11.9336 97.5059 12.2441C97.0957 12.5488 96.6035 12.7803 96.0293 12.9385C95.4551 13.0967 94.8135 13.1758 94.1045 13.1758C93.46 13.1758 92.8242 13.0938 92.1973 12.9297C91.5703 12.7598 91.002 12.502 90.4922 12.1562C89.9883 11.8105 89.584 11.3711 89.2793 10.8379C88.9805 10.2988 88.8311 9.66016 88.8311 8.92188H91.6963C91.6963 9.30859 91.752 9.63672 91.8633 9.90625C91.9746 10.1699 92.1328 10.3838 92.3379 10.5479C92.5488 10.7119 92.8037 10.8291 93.1025 10.8994C93.4014 10.9697 93.7354 11.0049 94.1045 11.0049C94.5322 11.0049 94.8779 10.9463 95.1416 10.8291C95.4111 10.7061 95.6104 10.5391 95.7393 10.3281C95.8682 10.1172 95.9326 9.88281 95.9326 9.625ZM106.436 0.203125V13H103.579V0.203125H106.436ZM110.329 0.203125V2.42676H99.7646V0.203125H110.329ZM120.445 10.7852V13H113.634V10.7852H120.445ZM114.609 0.203125V13H111.744V0.203125H114.609ZM119.566 5.35352V7.49805H113.634V5.35352H119.566ZM120.454 0.203125V2.42676H113.634V0.203125H120.454ZM123.223 0.203125H125.596L128.672 9.35254L131.739 0.203125H134.112L129.63 13H127.705L123.223 0.203125ZM121.852 0.203125H124.269L124.717 9.68652V13H121.852V0.203125ZM133.066 0.203125H135.492V13H132.618V9.68652L133.066 0.203125ZM142.664 8.55273H139.447V6.3291H142.664C143.139 6.3291 143.52 6.25 143.807 6.0918C144.1 5.93359 144.313 5.7168 144.448 5.44141C144.589 5.16016 144.659 4.84375 144.659 4.49219C144.659 4.12891 144.589 3.79199 144.448 3.48145C144.313 3.16504 144.1 2.91016 143.807 2.7168C143.52 2.52344 143.139 2.42676 142.664 2.42676H140.484V13H137.619V0.203125H142.664C143.684 0.203125 144.557 0.387695 145.283 0.756836C146.016 1.12598 146.575 1.63281 146.962 2.27734C147.354 2.91602 147.551 3.64844 147.551 4.47461C147.551 5.30078 147.354 6.01855 146.962 6.62793C146.575 7.2373 146.016 7.71191 145.283 8.05176C144.557 8.38574 143.684 8.55273 142.664 8.55273Z" fill="#DC0000"/>
</svg>
