<svg width="94" height="113" viewBox="0 0 94 113" fill="none" xmlns="http://www.w3.org/2000/svg">
<g filter="url(#filter0_d_94_355)">
<path d="M47 15C37.6092 15 30 22.3882 30 31.5397C30 47.3635 47 68 47 68C47 68 64 47.3602 64 31.5397C64 22.3915 56.3908 15 47 15ZM47 40.6912C44.5653 40.6912 42.2303 39.7484 40.5088 38.07C38.7872 36.3917 37.82 34.1154 37.82 31.7419C37.82 29.3684 38.7872 27.0921 40.5088 25.4138C42.2303 23.7354 44.5653 22.7926 47 22.7926C49.4347 22.7926 51.7697 23.7354 53.4912 25.4138C55.2128 27.0921 56.18 29.3684 56.18 31.7419C56.18 34.1154 55.2128 36.3917 53.4912 38.07C51.7697 39.7484 49.4347 40.6912 47 40.6912Z" fill="#0047FF"/>
</g>
<defs>
<filter id="filter0_d_94_355" x="0" y="0" width="94" height="113" filterUnits="userSpaceOnUse" color-interpolation-filters="sRGB">
<feFlood flood-opacity="0" result="BackgroundImageFix"/>
<feColorMatrix in="SourceAlpha" type="matrix" values="0 0 0 0 0 0 0 0 0 0 0 0 0 0 0 0 0 0 127 0" result="hardAlpha"/>
<feOffset dy="15"/>
<feGaussianBlur stdDeviation="15"/>
<feColorMatrix type="matrix" values="0 0 0 0 0.14902 0 0 0 0 0.231373 0 0 0 0 0.831373 0 0 0 0.34 0"/>
<feBlend mode="normal" in2="BackgroundImageFix" result="effect1_dropShadow_94_355"/>
<feBlend mode="normal" in="SourceGraphic" in2="effect1_dropShadow_94_355" result="shape"/>
</filter>
</defs>
</svg>
